<?xml version="1.0" standalone="no"?><svg xmlns="http://www.w3.org/2000/svg" viewBox="0 0 1440 320"><path fill="#ffffff" fill-opacity="1" d="M0,288L34.3,277.3C68.6,267,137,245,206,224C274.3,203,343,181,411,154.7C480,128,549,96,617,106.7C685.7,117,754,171,823,208C891.4,245,960,267,1029,250.7C1097.1,235,1166,181,1234,133.3C1302.9,85,1371,43,1406,21.3L1440,0L1440,0L1405.7,0C1371.4,0,1303,0,1234,0C1165.7,0,1097,0,1029,0C960,0,891,0,823,0C754.3,0,686,0,617,0C548.6,0,480,0,411,0C342.9,0,274,0,206,0C137.1,0,69,0,34,0L0,0Z"></path></svg>