<?xml version="1.0" standalone="no"?><svg xmlns="http://www.w3.org/2000/svg" viewBox="0 0 1440 320"><path fill="#ffffff" fill-opacity="1" d="M0,288L34.3,277.3C68.6,267,137,245,206,224C274.3,203,343,181,411,154.7C480,128,549,96,617,106.7C685.7,117,754,171,823,208C891.4,245,960,267,1029,250.7C1097.1,235,1166,181,1234,133.3C1302.9,85,1371,43,1406,21.3L1440,0L1440,320L1405.7,320C1371.4,320,1303,320,1234,320C1165.7,320,1097,320,1029,320C960,320,891,320,823,320C754.3,320,686,320,617,320C548.6,320,480,320,411,320C342.9,320,274,320,206,320C137.1,320,69,320,34,320L0,320Z"></path></svg>