<?xml version="1.0" standalone="no"?>
<!DOCTYPE svg PUBLIC "-//W3C//DTD SVG 20010904//EN"
 "http://www.w3.org/TR/2001/REC-SVG-20010904/DTD/svg10.dtd">
<svg version="1.0" xmlns="http://www.w3.org/2000/svg"
 width="750.000000pt" height="78.000000pt" viewBox="0 0 750.000000 78.000000"
 preserveAspectRatio="xMidYMid meet">

<g transform="translate(0.000000,78.000000) scale(0.100000,-0.100000)"
fill="#000000" stroke="none">
<path d="M532 771 c-17 -10 -165 -717 -156 -744 4 -13 14 -17 37 -15 37 4 26
-37 119 421 48 237 60 311 52 325 -13 20 -34 25 -52 13z"/>
<path d="M4824 645 c-10 -25 4 -45 30 -45 27 0 42 26 25 46 -15 19 -48 18 -55
-1z"/>
<path d="M6204 646 c-10 -26 4 -46 31 -46 23 0 26 4 23 28 -3 31 -44 45 -54
18z"/>
<path d="M6411 646 c-29 -16 -39 -38 -40 -83 -1 -28 -5 -33 -26 -33 -18 0 -25
-5 -25 -20 0 -15 7 -20 25 -20 l25 0 0 -155 c0 -148 1 -155 20 -155 19 0 20 7
20 155 l0 155 40 0 c33 0 40 3 40 20 0 17 -7 20 -40 20 -35 0 -40 3 -40 23 0
31 25 64 55 71 14 4 25 13 25 21 0 19 -46 19 -79 1z"/>
<path d="M6561 647 c-25 -31 13 -66 46 -42 14 11 16 18 7 32 -14 23 -38 28
-53 10z"/>
<path d="M4130 575 c0 -41 -3 -75 -6 -75 -3 0 -17 9 -31 20 -34 27 -107 27
-151 0 -93 -57 -109 -216 -29 -298 52 -54 129 -62 190 -20 27 19 27 19 27 -1
0 -19 6 -21 55 -21 l55 0 0 235 0 235 -55 0 -55 0 0 -75z m-29 -154 c33 -33
37 -67 14 -111 -29 -56 -107 -53 -131 6 -19 45 -10 88 23 114 35 27 59 25 94
-9z"/>
<path d="M6060 415 l0 -235 25 0 25 0 0 235 0 235 -25 0 -25 0 0 -235z"/>
<path d="M7390 558 l0 -91 -22 20 c-55 50 -128 59 -196 24 -106 -54 -109 -248
-6 -312 61 -37 145 -27 202 24 l22 20 0 -31 c0 -27 4 -32 25 -32 l25 0 0 235
0 235 -25 0 c-25 0 -25 -1 -25 -92z m-54 -84 c52 -35 71 -131 38 -195 -23 -45
-91 -73 -143 -59 -102 27 -133 175 -50 244 37 31 114 36 155 10z"/>
<path d="M1337 623 c-4 -3 -7 -105 -7 -225 l0 -218 60 0 60 0 0 90 0 90 65 0
65 0 0 45 0 45 -65 0 -65 0 0 45 0 45 90 0 90 0 0 45 0 45 -143 0 c-79 0 -147
-3 -150 -7z"/>
<path d="M4513 611 c-66 -41 -80 -125 -29 -176 13 -13 56 -33 96 -45 111 -33
147 -84 100 -143 -41 -52 -130 -44 -169 16 -42 63 -82 41 -44 -24 23 -38 69
-59 133 -59 91 0 140 42 140 119 0 63 -33 95 -125 122 -85 25 -115 50 -115 95
0 69 112 103 165 49 14 -13 25 -29 25 -35 0 -5 11 -10 25 -10 35 0 32 23 -9
67 -31 34 -39 37 -97 40 -51 3 -70 0 -96 -16z"/>
<path d="M2810 580 c0 -33 -3 -40 -20 -40 -17 0 -20 -7 -20 -45 0 -37 3 -45
19 -45 16 0 19 -11 23 -98 3 -53 10 -108 17 -120 16 -31 69 -52 126 -52 l45 0
0 45 c0 43 -1 45 -30 45 -40 0 -52 26 -48 108 l3 67 38 3 c37 3 37 4 37 48 l0
44 -40 0 -40 0 0 40 0 40 -55 0 -55 0 0 -40z"/>
<path d="M94 488 c-46 -45 -84 -90 -84 -99 0 -10 37 -54 83 -98 86 -84 117
-98 137 -61 10 18 3 30 -57 91 l-68 71 68 63 c37 34 67 67 67 72 0 14 -34 43
-50 43 -7 0 -50 -37 -96 -82z"/>
<path d="M732 558 c-22 -22 -12 -42 50 -105 l62 -63 -62 -63 c-34 -34 -62 -69
-62 -78 0 -20 20 -39 40 -39 19 0 180 160 180 179 0 19 -160 181 -180 181 -9
0 -21 -5 -28 -12z"/>
<path d="M1687 534 c-4 -4 -7 -85 -7 -181 l0 -173 60 0 60 0 0 103 c0 56 4
108 9 116 5 8 29 17 53 20 l43 6 3 58 c3 50 1 57 -16 57 -11 0 -35 -11 -55
-24 l-36 -25 -3 22 c-3 19 -10 22 -53 25 -28 2 -54 0 -58 -4z"/>
<path d="M2032 519 c-57 -29 -92 -88 -92 -157 0 -95 40 -152 124 -177 184 -55
321 150 198 297 -51 60 -150 76 -230 37z m131 -89 c31 -25 41 -62 27 -106 -30
-91 -140 -61 -140 38 0 28 7 46 25 63 29 30 54 32 88 5z"/>
<path d="M2370 360 l0 -180 55 0 55 0 0 119 c0 113 1 121 22 135 31 22 64 20
88 -4 18 -18 20 -33 20 -135 l0 -115 55 0 55 0 0 125 c0 87 -4 136 -14 160
-29 69 -126 96 -193 55 -33 -20 -33 -20 -33 0 0 18 -7 20 -55 20 l-55 0 0
-180z"/>
<path d="M3135 526 c-65 -30 -95 -85 -95 -173 0 -70 28 -123 83 -153 79 -45
199 -20 240 50 26 44 22 50 -33 50 -36 0 -59 -6 -79 -21 -32 -23 -75 -18 -91
11 -20 37 -13 40 110 40 l120 0 0 49 c0 53 -25 99 -73 135 -35 25 -138 33
-182 12z m127 -93 c35 -32 23 -43 -47 -43 -69 0 -79 8 -48 42 20 22 70 23 95
1z"/>
<path d="M3450 360 l0 -180 55 0 55 0 0 109 c0 94 3 112 21 135 28 35 70 35
98 0 18 -23 21 -41 21 -135 l0 -109 55 0 55 0 0 113 c0 133 -10 173 -51 213
-26 25 -38 29 -89 29 -41 0 -63 -5 -77 -17 -25 -23 -33 -23 -33 2 0 18 -7 20
-55 20 l-55 0 0 -180z"/>
<path d="M5096 530 c-16 -5 -39 -19 -52 -31 l-24 -22 0 26 c0 20 -5 27 -20 27
-19 0 -20 -7 -20 -175 0 -168 1 -175 20 -175 19 0 20 7 21 108 0 135 12 171
62 196 33 16 45 17 78 7 59 -18 69 -46 69 -191 l0 -120 25 0 25 0 0 126 c0
125 0 126 29 154 51 52 115 50 155 -4 18 -23 21 -45 24 -152 3 -116 5 -124 24
-124 19 0 19 6 16 139 -3 139 -3 140 -33 171 -58 61 -149 60 -207 -3 -16 -16
-28 -24 -28 -19 0 19 -64 60 -100 66 -19 3 -48 1 -64 -4z"/>
<path d="M5805 534 c-5 -1 -22 -5 -37 -8 -14 -3 -40 -18 -57 -32 l-31 -26 0
31 c0 26 -4 31 -25 31 l-25 0 2 -257 c3 -250 4 -258 23 -258 19 0 20 8 23 114
l3 114 28 -27 c76 -72 205 -46 252 52 27 55 23 148 -7 189 -37 49 -110 87
-149 77z m73 -60 c34 -24 52 -68 52 -128 0 -67 -31 -110 -90 -126 -86 -23
-160 37 -160 132 0 57 11 84 48 115 33 28 115 32 150 7z"/>
<path d="M6827 529 c-72 -12 -126 -70 -134 -142 -14 -124 54 -209 167 -209 61
0 114 26 140 67 25 41 25 45 -3 45 -16 0 -28 -9 -35 -26 -24 -51 -118 -66
-177 -28 -24 16 -45 55 -45 84 0 19 8 20 146 20 l147 0 -7 48 c-13 98 -98 159
-199 141z m96 -51 c30 -12 57 -54 57 -88 0 -19 -6 -20 -120 -20 -120 0 -120 0
-120 24 0 31 35 75 74 92 32 14 59 12 109 -8z"/>
<path d="M4830 355 l0 -175 25 0 25 0 0 175 0 175 -25 0 -25 0 0 -175z"/>
<path d="M6210 355 l0 -175 25 0 25 0 0 175 0 175 -25 0 -25 0 0 -175z"/>
<path d="M6560 355 l0 -175 25 0 25 0 0 175 0 175 -25 0 -25 0 0 -175z"/>
</g>
</svg>
