<?xml version="1.0" standalone="no"?>
<!DOCTYPE svg PUBLIC "-//W3C//DTD SVG 20010904//EN"
 "http://www.w3.org/TR/2001/REC-SVG-20010904/DTD/svg10.dtd">
<svg version="1.0" xmlns="http://www.w3.org/2000/svg"
 width="435.000000pt" height="123.000000pt" viewBox="0 0 435.000000 123.000000"
 preserveAspectRatio="xMidYMid meet">

<g transform="translate(0.000000,123.000000) scale(0.100000,-0.100000)"
fill="#000000" stroke="none">
<path d="M380 996 c0 -47 -11 -56 -72 -56 -24 0 -28 -4 -28 -30 0 -23 -7 -33
-30 -45 -17 -9 -29 -19 -26 -23 7 -12 -6 -26 -36 -39 l-28 -13 0 -283 0 -284
54 18 c100 34 222 44 376 31 76 -7 151 -17 165 -22 16 -6 34 -6 50 0 14 5 89
15 165 22 154 13 276 3 376 -31 l54 -18 0 284 0 284 -35 15 c-23 9 -35 21 -35
34 0 13 -9 22 -25 26 -20 5 -25 13 -25 35 0 31 -4 34 -62 44 -37 6 -38 7 -38
50 l0 44 -52 -6 c-111 -12 -217 -59 -302 -134 l-46 -41 -46 41 c-85 75 -191
122 -301 134 l-53 6 0 -43z m131 8 c78 -23 157 -66 212 -114 l47 -42 0 -286 0
-285 -37 37 c-66 65 -181 119 -291 134 l-47 7 -3 283 -2 282 33 0 c18 0 58 -7
88 -16z m657 -266 l-3 -283 -47 -7 c-110 -15 -225 -69 -291 -134 l-37 -37 0
285 0 286 48 42 c77 69 213 128 295 129 l37 1 -2 -282z m-788 -52 l0 -244 73
-12 c77 -13 220 -74 251 -109 14 -15 2 -12 -51 14 -92 46 -218 78 -294 73
l-59 -3 0 263 0 262 40 0 40 0 0 -244z m880 -18 l0 -263 -59 3 c-75 5 -198
-26 -292 -71 -49 -24 -64 -28 -51 -14 30 33 173 95 250 107 l72 12 0 244 0
244 40 0 40 0 0 -262z m-980 -43 l0 -235 78 0 c89 0 176 -19 256 -54 68 -30
73 -40 9 -20 -71 23 -276 29 -335 11 l-48 -15 0 268 c0 267 1 276 33 279 4 1
7 -105 7 -234z m1024 229 c14 -5 16 -39 16 -274 l0 -268 -47 15 c-60 18 -265
12 -335 -11 -65 -20 -60 -10 8 20 80 35 167 54 257 54 l77 0 0 235 c0 129 2
235 4 235 2 0 11 -3 20 -6z"/>
<path d="M1630 650 l0 -320 65 0 65 0 0 320 0 320 -65 0 -65 0 0 -320z"/>
<path d="M2072 653 l3 -318 63 -3 c57 -3 62 -1 62 18 0 25 4 25 39 -1 99 -73
257 6 277 139 19 127 -65 232 -186 232 -37 0 -65 -6 -87 -20 l-33 -20 0 145 0
145 -70 0 -70 0 2 -317z m269 -56 c62 -47 43 -146 -30 -162 -61 -13 -121 48
-105 109 13 54 93 85 135 53z"/>
<path d="M1883 938 c-71 -34 -37 -148 43 -148 23 0 74 55 74 80 0 27 -52 80
-77 79 -10 0 -28 -5 -40 -11z"/>
<path d="M2747 690 l-37 -32 0 26 c0 25 -2 26 -65 26 l-65 0 0 -190 0 -190 65
0 65 0 0 105 c0 140 17 175 86 175 14 0 34 -5 45 -10 17 -9 22 -4 46 44 15 31
24 59 20 63 -4 4 -34 9 -66 11 -54 4 -60 2 -94 -28z"/>
<path d="M3035 708 c-136 -74 -148 -273 -23 -355 55 -37 141 -39 187 -5 37 27
41 27 41 2 0 -18 7 -20 65 -20 l65 0 0 190 0 190 -65 0 c-51 0 -65 -3 -65 -15
0 -12 -6 -12 -37 5 -42 22 -134 27 -168 8z m179 -123 c72 -67 -14 -187 -102
-141 -37 19 -57 71 -43 109 22 58 98 75 145 32z"/>
<path d="M3640 704 c-14 -9 -31 -24 -37 -32 -11 -14 -13 -12 -13 11 0 27 -1
27 -65 27 l-65 0 0 -190 0 -190 65 0 65 0 0 115 c0 110 1 117 25 140 25 26 57
31 98 16 22 -9 26 -6 43 30 9 22 21 42 25 44 4 3 43 -59 88 -138 l80 -143 -64
-125 c-36 -68 -65 -125 -65 -127 0 -2 34 -2 76 0 l76 3 144 275 c79 151 144
278 144 283 0 4 -33 7 -73 7 l-72 0 -44 -96 -44 -96 -51 96 -51 96 -56 0 c-31
0 -89 3 -130 6 -60 5 -79 2 -99 -12z"/>
<path d="M1850 520 l0 -190 65 0 65 0 0 190 0 190 -65 0 -65 0 0 -190z"/>
</g>
</svg>
