<?xml version="1.0" standalone="no"?><svg xmlns="http://www.w3.org/2000/svg" viewBox="0 0 1440 320"><path fill="#7342D61A" fill-opacity="1" d="M0,160L34.3,160C68.6,160,137,160,206,144C274.3,128,343,96,411,122.7C480,149,549,235,617,229.3C685.7,224,754,128,823,106.7C891.4,85,960,139,1029,181.3C1097.1,224,1166,256,1234,229.3C1302.9,203,1371,117,1406,74.7L1440,32L1440,0L1405.7,0C1371.4,0,1303,0,1234,0C1165.7,0,1097,0,1029,0C960,0,891,0,823,0C754.3,0,686,0,617,0C548.6,0,480,0,411,0C342.9,0,274,0,206,0C137.1,0,69,0,34,0L0,0Z"></path></svg>