<?xml version="1.0" standalone="no"?><svg xmlns="http://www.w3.org/2000/svg" viewBox="0 0 1440 320"><path fill="#7342D61A" fill-opacity="1" d="M0,160L34.3,160C68.6,160,137,160,206,144C274.3,128,343,96,411,122.7C480,149,549,235,617,229.3C685.7,224,754,128,823,106.7C891.4,85,960,139,1029,181.3C1097.1,224,1166,256,1234,229.3C1302.9,203,1371,117,1406,74.7L1440,32L1440,320L1405.7,320C1371.4,320,1303,320,1234,320C1165.7,320,1097,320,1029,320C960,320,891,320,823,320C754.3,320,686,320,617,320C548.6,320,480,320,411,320C342.9,320,274,320,206,320C137.1,320,69,320,34,320L0,320Z"></path></svg>